<?xml version="1.0" encoding="utf-8" ?>
<svg xmlns="http://www.w3.org/2000/svg" xmlns:xlink="http://www.w3.org/1999/xlink" width="512" height="512">
	<path fill="white" d="M218.68 170.358C213.583 166.433 209.6 160.865 205.497 155.94L189.636 136.898L178.714 123.806C176.456 121.119 173.92 118.434 171.992 115.506C171.264 114.4 170.768 112.99 170.612 111.678Q170.566 111.297 170.558 110.912Q170.551 110.528 170.58 110.145Q170.61 109.762 170.678 109.384Q170.745 109.006 170.85 108.636Q170.954 108.267 171.094 107.909Q171.234 107.551 171.409 107.209Q171.584 106.867 171.791 106.544Q171.999 106.22 172.237 105.919C173.65 104.117 175.335 102.786 177.648 102.542C181.228 102.165 185.019 102.442 188.627 102.46L207.432 102.474L271.768 102.473L381.702 102.47L418.962 102.48C424.463 102.485 430.02 102.273 435.511 102.445C437.224 102.499 439.149 102.825 440.468 104.006C441.744 105.15 442.846 107.366 443.064 109.061C443.697 113.993 443.241 119.357 443.241 124.343L443.24 155.017L443.243 229.454C443.245 244.073 443.021 258.724 443.41 273.337C453.933 273.163 464.479 273.291 475.004 273.291C482.277 273.291 489.666 273.023 496.921 273.425C501.196 273.662 504.474 275.397 507.301 278.55C509.684 281.017 510.5 283.832 512 286.801L512 293.509C511.097 295.645 510.208 298.593 508.609 300.269C507.821 301.991 498.698 312.297 496.852 314.512L459.28 359.597L433.576 390.439C429.792 394.973 424.85 401.779 420.526 405.587C417.219 408.499 412.921 409.841 408.557 409.63C402.308 409.328 398.836 405.93 394.89 401.577C388.618 394.659 382.819 387.115 376.835 379.936L339.807 335.495L319.646 311.305C316.076 307.027 311.762 302.688 308.919 297.908C307.295 295.177 307.225 291.725 307.387 288.631Q307.43 287.788 307.559 286.953Q307.687 286.119 307.9 285.302Q308.112 284.484 308.406 283.693Q308.7 282.901 309.073 282.144Q309.446 281.386 309.893 280.67Q310.341 279.954 310.859 279.288Q311.377 278.621 311.96 278.01Q312.542 277.399 313.184 276.85C315.248 275.061 317.403 274.165 320.062 273.732C323.534 273.165 327.183 273.312 330.694 273.299L345.985 273.288L364.645 273.292C368.238 273.295 371.907 273.147 375.488 273.397L375.475 170.584C372.306 170.733 369.054 170.544 365.875 170.541L344.883 170.534L280.37 170.53L239.476 170.533C232.95 170.537 225.057 171.076 218.68 170.358ZM507.301 278.55C507.229 280.348 511.104 286.266 511.28 289.074C511.57 293.697 508.837 296.444 508.609 300.269C510.208 298.593 511.097 295.645 512 293.509L512 286.801C510.5 283.832 509.684 281.017 507.301 278.55Z"/>
	<defs>
		<linearGradient id="gradient_0" gradientUnits="userSpaceOnUse" x1="511.09003" y1="290.26028" x2="511.89191" y2="290.20877">
			<stop offset="0" stop-color="white" stop-opacity="0.94509804"/>
			<stop offset="1" stop-color="red" stop-opacity="0.98431373"/>
		</linearGradient>
	</defs>
	<path fill="url(#gradient_0)" d="M507.301 278.55C509.684 281.017 510.5 283.832 512 286.801L512 293.509C511.097 295.645 510.208 298.593 508.609 300.269C508.837 296.444 511.57 293.697 511.28 289.074C511.104 286.266 507.229 280.348 507.301 278.55Z"/>
	<path fill="white" d="M0 218.236L0.21837 217.774C1.1021 215.883 1.60685 213.875 2.8375 212.157C6.74181 206.705 11.5042 201.667 15.7985 196.5L43.1725 163.651L73.1749 127.65C78.4196 121.345 83.4692 114.581 89.1326 108.67C91.1568 106.557 93.1051 104.717 95.9012 103.682Q96.7564 103.362 97.6393 103.128Q98.5221 102.895 99.4238 102.751Q100.325 102.606 101.237 102.552Q102.149 102.498 103.061 102.535Q103.973 102.572 104.878 102.699Q105.782 102.827 106.669 103.043Q107.556 103.26 108.417 103.564Q109.278 103.868 110.105 104.256C112.473 105.369 114.312 107.384 116.056 109.293C120.747 114.426 125.065 120.018 129.519 125.366L155.768 156.879L184.993 191.948C190.122 198.092 195.566 204.126 200.428 210.472C201.73 212.173 203.059 214.177 203.763 216.214C204.984 219.748 204.623 226.398 202.891 229.727C200.939 233.477 197.472 236.876 193.345 237.993C188.329 239.351 178.841 238.675 173.31 238.674C161.031 238.671 148.729 238.505 136.452 238.733C135.957 244.715 136.19 250.795 136.189 256.795L136.19 286.234L136.195 320.192C136.195 327.267 135.987 334.42 136.43 341.481L241.849 341.466C248.347 341.466 291.173 340.897 293.677 341.933C293.801 341.985 293.927 342.032 294.051 342.085C294.909 342.456 295.556 342.916 296.201 343.591C298.857 346.372 301.206 349.543 303.66 352.508L316.506 367.936L331.394 385.795C333.636 388.481 336.101 391.089 338.189 393.888C339.093 395.1 339.887 396.427 340.434 397.839C341.314 400.107 341.421 402.601 340.359 404.828C339.622 406.374 337.76 408.529 336.087 409.038C335.657 409.169 335.205 409.211 334.761 409.27C331.152 409.749 327.436 409.554 323.798 409.552L307.151 409.54L250.581 409.535L132.074 409.533C113.72 409.533 95.3132 409.848 76.9662 409.591C75.2616 409.568 73.4489 409.506 72.0276 408.455C70.5894 407.391 69.551 405.509 68.9033 403.867C67.9303 401.231 68.4749 372.717 68.4746 366.854L68.4729 287.553L68.4757 255.679C68.4767 250.034 68.222 244.283 68.5676 238.656C66.0355 238.819 63.4217 238.676 60.8812 238.676L45.2446 238.677L25.1001 238.676C21.1272 238.675 15.1851 239.225 11.4417 238.199C10.3625 237.903 9.27789 237.172 8.34251 236.567C3.97268 233.738 2.2834 230.226 0 225.764L0 218.236ZM68.5676 238.656C68.222 244.283 68.4767 250.034 68.4757 255.679L68.4729 287.553L68.4746 366.854C68.4749 372.717 67.9303 401.231 68.9033 403.867C69.4536 403.726 69.2116 403.875 69.5898 403.361L69.5665 302.661L69.5693 266.27C69.5694 259.913 69.711 253.523 69.5492 247.171C69.4988 245.196 69.382 240.285 68.5676 238.656Z"/>
	<path fill="white" fill-opacity="0.95686275" d="M68.5676 238.656C69.382 240.285 69.4988 245.196 69.5492 247.171C69.711 253.523 69.5694 259.913 69.5693 266.27L69.5665 302.661L69.5898 403.361C69.2116 403.875 69.4536 403.726 68.9033 403.867C67.9303 401.231 68.4749 372.717 68.4746 366.854L68.4729 287.553L68.4757 255.679C68.4767 250.034 68.222 244.283 68.5676 238.656Z"/>
</svg>
